<?xml version="1.0" encoding="utf-8"?>
<!-- Generator: Adobe Illustrator 19.2.1, SVG Export Plug-In . SVG Version: 6.00 Build 0)  -->
<svg version="1.1" id="Layer_1" xmlns="http://www.w3.org/2000/svg" xmlns:xlink="http://www.w3.org/1999/xlink" x="0px" y="0px"
	 viewBox="0 0 1190.6 841.9" enable-background="new 0 0 1190.6 841.9" xml:space="preserve">
<path d="M744.1,177.4c-39.9-39.9-92.9-61.8-149.2-61.8c-56.4,0-109.4,22-149.2,61.8c-39.9,39.9-61.8,92.9-61.8,149.2
	c0,56.4,22,109.4,61.8,149.2c39.9,39.9,92.9,61.8,149.2,61.8c56.4,0,109.4-22,149.2-61.8C784,436,805.9,383,805.9,326.7
	C805.9,270.3,784,217.3,744.1,177.4z M732.9,464.7c-35,35-80.9,55-130.1,57V330.8h59.7V315h-59.7v-40.3h59.7v-15.8H527.2v15.8h59.7
	V315h-59.7v15.8h59.7v190.9c-49.2-2-95.1-22-130.1-57c-36.9-36.9-57.2-85.9-57.2-138s20.3-101.2,57.2-138
	c36.9-36.9,85.9-57.2,138-57.2c52.1,0,101.2,20.3,138,57.2c36.9,36.9,57.2,85.9,57.2,138S769.8,427.8,732.9,464.7z"/>
<g>
	<polygon points="384.3,661.4 398.1,661.4 398.1,673 384.3,673 384.3,677.9 398.1,677.9 398.1,697.2 403.6,697.2 403.6,677.9 
		417.4,677.9 417.4,673 403.6,673 403.6,661.4 417.4,661.4 417.4,656.5 384.3,656.5 	"/>
	<polygon points="506.1,673.3 484.8,673.3 484.8,656.5 479.3,656.5 479.3,697.2 484.8,697.2 484.8,678.2 506.1,678.2 506.1,697.2 
		511.6,697.2 511.6,656.5 506.1,656.5 	"/>
	<polygon points="583,678.7 598.2,678.7 598.2,673.9 583,673.9 583,661.4 607.2,661.4 607.2,656.5 577.5,656.5 577.5,697.2 
		607.6,697.2 607.6,692.4 583,692.4 	"/>
	<path d="M691,676.6L691,676.6l-11.7-20.1h-7.9v40.7h5.3v-24.1c0-1.2-0.1-6.4-0.1-10.1h0.1l11.5,19.8h5.4l11.5-19.9h0.1
		c0,3.8-0.1,9-0.1,10.2v24.1h5.3v-40.7h-7.8L691,676.6z"/>
	<polygon points="781.6,692.4 781.6,678.7 796.8,678.7 796.8,673.9 781.6,673.9 781.6,661.4 805.8,661.4 805.8,656.5 776.1,656.5 
		776.1,697.2 806.2,697.2 806.2,692.4 	"/>
</g>
</svg>
