<?xml version="1.0" encoding="utf-8"?>
<!-- Generator: Adobe Illustrator 19.2.1, SVG Export Plug-In . SVG Version: 6.00 Build 0)  -->
<svg version="1.1" id="Layer_1" xmlns="http://www.w3.org/2000/svg" xmlns:xlink="http://www.w3.org/1999/xlink" x="0px" y="0px"
	 viewBox="0 0 261.6 343.7" enable-background="new 0 0 261.6 343.7" xml:space="preserve">
<path fill="#FFFFFF" d="M197,73.2c-17.8-17.8-41.4-27.6-66.5-27.6c-25.1,0-48.8,9.8-66.5,27.6C46.2,91,36.4,114.6,36.4,139.8
	c0,25.1,9.8,48.8,27.6,66.5c17.8,17.8,41.4,27.6,66.5,27.6c25.1,0,48.8-9.8,66.5-27.6c17.8-17.8,27.6-41.4,27.6-66.5
	C224.6,114.6,214.8,91,197,73.2z M192,201.3c-15.6,15.6-36.1,24.5-58,25.4v-85.1h26.6v-7.1H134v-18h26.6v-7.1h-60.3v7.1h26.6v18
	h-26.6v7.1h26.6v85.1c-21.9-0.9-42.4-9.8-58-25.4c-16.4-16.4-25.5-38.3-25.5-61.5s9.1-45.1,25.5-61.5c16.4-16.4,38.3-25.5,61.5-25.5
	s45.1,9.1,61.5,25.5c16.4,16.4,25.5,38.3,25.5,61.5S208.5,184.9,192,201.3z"/>
<g>
	<polygon fill="#FFFFFF" points="36.6,289 42.7,289 42.7,294.2 36.6,294.2 36.6,296.4 42.7,296.4 42.7,305 45.2,305 45.2,296.4 
		51.4,296.4 51.4,294.2 45.2,294.2 45.2,289 51.4,289 51.4,286.8 36.6,286.8 	"/>
	<polygon fill="#FFFFFF" points="90.9,294.4 81.4,294.4 81.4,286.8 79,286.8 79,305 81.4,305 81.4,296.5 90.9,296.5 90.9,305 
		93.3,305 93.3,286.8 90.9,286.8 	"/>
	<polygon fill="#FFFFFF" points="125.2,296.8 132,296.8 132,294.6 125.2,294.6 125.2,289 136,289 136,286.8 122.7,286.8 122.7,305 
		136.2,305 136.2,302.8 125.2,302.8 	"/>
	<path fill="#FFFFFF" d="M173.3,295.8L173.3,295.8l-5.2-9h-3.5V305h2.4v-10.7c0-0.5-0.1-2.8-0.1-4.5h0.1l5.1,8.8h2.4l5.1-8.9h0.1
		c0,1.7-0.1,4-0.1,4.5V305h2.4v-18.2h-3.5L173.3,295.8z"/>
	<polygon fill="#FFFFFF" points="213.8,302.8 213.8,296.8 220.5,296.8 220.5,294.6 213.8,294.6 213.8,289 224.5,289 224.5,286.8 
		211.3,286.8 211.3,305 224.7,305 224.7,302.8 	"/>
</g>
<path fill="#FFFFFF" d="M1704.8-101.6c-39.9-39.9-92.9-61.8-149.2-61.8c-56.4,0-109.4,22-149.2,61.8
	c-39.9,39.9-61.8,92.9-61.8,149.2c0,56.4,22,109.4,61.8,149.2c39.9,39.9,92.9,61.8,149.2,61.8c56.4,0,109.4-22,149.2-61.8
	c39.9-39.9,61.8-92.9,61.8-149.2C1766.6-8.8,1744.6-61.8,1704.8-101.6z M1693.6,185.6c-35,35-80.9,55-130.1,57V51.7h59.7V35.8h-59.7
	V-4.5h59.7v-15.8h-135.3v15.8h59.7v40.3h-59.7v15.8h59.7v190.9c-49.2-2-95.1-22-130.1-57c-36.9-36.9-57.2-85.9-57.2-138
	s20.3-101.2,57.2-138c36.9-36.9,85.9-57.2,138-57.2c52.1,0,101.2,20.3,138,57.2c36.9,36.9,57.2,85.9,57.2,138
	S1730.4,148.7,1693.6,185.6z"/>
<g>
	<polygon fill="#FFFFFF" points="1345,382.3 1358.8,382.3 1358.8,393.9 1345,393.9 1345,398.8 1358.8,398.8 1358.8,418.1 
		1364.3,418.1 1364.3,398.8 1378.1,398.8 1378.1,393.9 1364.3,393.9 1364.3,382.3 1378.1,382.3 1378.1,377.4 1345,377.4 	"/>
	<polygon fill="#FFFFFF" points="1466.8,394.3 1445.5,394.3 1445.5,377.4 1440,377.4 1440,418.1 1445.5,418.1 1445.5,399.1 
		1466.8,399.1 1466.8,418.1 1472.3,418.1 1472.3,377.4 1466.8,377.4 	"/>
	<polygon fill="#FFFFFF" points="1543.7,399.6 1558.8,399.6 1558.8,394.8 1543.7,394.8 1543.7,382.3 1567.9,382.3 1567.9,377.4 
		1538.2,377.4 1538.2,418.1 1568.3,418.1 1568.3,413.3 1543.7,413.3 	"/>
	<path fill="#FFFFFF" d="M1651.7,397.5h-0.1l-11.6-20.1h-7.9v40.7h5.3v-24.1c0-1.2-0.1-6.4-0.1-10.1h0.1l11.5,19.8h5.4l11.5-19.9
		h0.1c0,3.8-0.1,9-0.1,10.2v24.1h5.3v-40.7h-7.8L1651.7,397.5z"/>
	<polygon fill="#FFFFFF" points="1742.3,413.3 1742.3,399.6 1757.4,399.6 1757.4,394.8 1742.3,394.8 1742.3,382.3 1766.5,382.3 
		1766.5,377.4 1736.8,377.4 1736.8,418.1 1766.9,418.1 1766.9,413.3 	"/>
</g>
</svg>
